<svg xmlns="http://www.w3.org/2000/svg" width="537" height="130" viewBox="0 0 537 130" version="1.1"><path d="" stroke="none" fill="#b4fc94" fill-rule="evenodd"/><path d="M 25.369 20.480 C 25.029 21.367, 25.256 26.040, 25.875 30.864 C 26.494 35.688, 27 46.591, 27 55.091 C 27 70.106, 25.294 83.254, 20.830 102.654 C 19.801 107.129, 19.869 108.150, 21.345 110.404 C 23.162 113.177, 26.113 113.796, 27.763 111.750 C 28.317 111.063, 29.317 107.125, 29.985 103 C 32.055 90.218, 39.786 77.134, 43.795 79.627 C 46.570 81.353, 49.987 87.069, 50.624 91.048 C 51.168 94.451, 55.027 100, 56.849 100 C 57.272 100, 58.479 99.370, 59.531 98.601 C 61.259 97.338, 61.616 97.484, 63.213 100.110 C 67.779 107.618, 76.405 108.780, 87.893 103.435 L 94.201 100.500 98.142 104.250 C 101.689 107.624, 102.620 108, 107.429 108 C 111.810 108, 113.638 107.414, 117.565 104.750 C 124.021 100.371, 126.764 96.625, 125.038 94.546 C 123.053 92.154, 119.653 92.709, 116.570 95.927 C 111.267 101.462, 104.358 102.407, 101.959 97.924 C 100.245 94.721, 102.232 93.361, 109.640 92.669 C 117.813 91.906, 121 90.035, 121 86 C 121 82.105, 117.391 79.761, 110.658 79.283 C 103.707 78.789, 98.488 81.791, 95.353 88.086 C 93.369 92.070, 92.170 93.087, 86.205 95.836 C 75.314 100.856, 69.905 99.775, 68.405 92.277 C 67.790 89.198, 67.811 89.181, 73.644 87.976 C 81.936 86.263, 88.611 82.688, 89.402 79.535 C 90.181 76.432, 87.889 71.629, 84.603 69.475 C 81.462 67.417, 74.126 67.367, 70.240 69.376 C 66.822 71.144, 62.712 75.998, 61.145 80.118 C 59.651 84.048, 56.428 84.446, 54.951 80.882 C 52.920 75.978, 47.522 72, 42.899 72 C 40.682 72, 37.998 72.466, 36.934 73.035 C 35.065 74.035, 34.998 73.588, 34.931 59.785 C 34.894 51.928, 34.106 39.650, 33.181 32.500 C 31.503 19.527, 31.494 19.499, 28.744 19.183 C 26.919 18.973, 25.780 19.411, 25.369 20.480 M 307.977 23.560 C 307.232 25.519, 307.467 27.135, 308.979 30.455 C 312.690 38.600, 314.058 62.478, 311.976 82.766 C 310.774 94.481, 311.574 98, 315.440 98 C 318.554 98, 319.990 95.440, 320.032 89.816 C 320.075 84.002, 324.695 74.614, 327.724 74.184 C 330.282 73.820, 333.990 78.924, 333.996 82.816 C 334.006 88.878, 338.362 90.898, 341.853 86.460 L 343.852 83.919 340.396 76.927 C 335.536 67.093, 328.987 63.519, 323.223 67.557 C 321.003 69.112, 321 69.106, 320.983 63.307 C 320.940 49.120, 316.896 26.102, 313.770 22.250 C 312.050 20.132, 309.020 20.817, 307.977 23.560 M 472.029 25.465 C 471.247 26.408, 471.049 28.329, 471.474 30.849 C 471.839 33.004, 471.614 42.036, 470.975 50.919 C 470.032 64.038, 470.058 67.365, 471.116 68.640 C 473.478 71.486, 476.528 71.923, 483.643 70.435 C 487.414 69.646, 490.826 69, 491.225 69 C 492.346 69, 490.893 75.306, 489.363 77.079 C 487.380 79.376, 487.690 81.669, 490.223 83.443 C 495.892 87.414, 498.987 84.331, 499.015 74.685 C 499.033 68.795, 500.364 65.458, 501.287 68.989 C 501.726 70.670, 502.476 71.076, 504.676 70.824 C 507.028 70.554, 507.660 69.853, 508.457 66.626 C 509.311 63.167, 509.166 62.553, 507.096 60.876 C 505.821 59.844, 503.640 59, 502.248 59 L 499.717 59 500.372 47.250 C 501.180 32.782, 500.467 29.500, 496.516 29.500 L 493.677 29.500 493.320 42.734 C 493.124 50.012, 492.569 57.002, 492.089 58.267 C 491.441 59.971, 489.827 60.919, 485.857 61.926 C 482.911 62.673, 479.888 63.513, 479.140 63.792 C 478.012 64.212, 477.903 61.982, 478.503 50.789 C 479.298 35.947, 478.593 27.736, 476.331 25.474 C 474.478 23.621, 473.561 23.619, 472.029 25.465 M 129.902 29.098 C 128.364 30.636, 127.974 31.903, 128.441 33.848 C 130.788 43.617, 131.130 56.715, 129.609 78.662 C 128.204 98.933, 128.197 101.651, 129.540 103.701 C 132.663 108.468, 137.062 105.199, 139.515 96.289 C 142.183 86.595, 144.146 81.882, 145.352 82.274 C 145.983 82.478, 147.129 84.638, 147.897 87.073 C 150.646 95.780, 151.242 96.942, 153.295 97.594 C 154.790 98.068, 155.927 97.584, 157.333 95.877 C 158.561 94.386, 159.447 93.948, 159.712 94.702 C 160.834 97.895, 164.853 102.484, 167.984 104.148 C 174.091 107.393, 181.718 106.271, 189.448 100.990 L 193.397 98.293 194.948 101.376 C 196.962 105.379, 202.446 109, 206.493 109 C 208.511 109, 211.916 107.561, 215.728 105.097 C 221.105 101.622, 221.931 101.360, 223.272 102.700 C 225.418 104.846, 228.531 103.522, 230.295 99.713 C 231.114 97.946, 232.317 92.645, 232.969 87.934 C 234.800 74.705, 236.308 73.899, 239.507 84.443 C 241.246 90.174, 242.173 90.964, 247.183 90.985 C 249.850 90.996, 251.024 91.499, 251.440 92.811 C 251.756 93.807, 253.561 96.121, 255.451 97.952 C 258.155 100.574, 259.910 101.369, 263.693 101.687 C 267.767 102.030, 269.401 101.570, 274.404 98.670 L 280.309 95.249 283.419 99.327 C 285.130 101.570, 288.019 104.275, 289.839 105.338 C 292.789 107.061, 293.576 107.130, 297.071 105.976 C 305.918 103.057, 309.227 99.093, 305.442 95.952 C 304.146 94.876, 303.117 95.031, 299.342 96.865 C 296.844 98.078, 293.975 98.809, 292.966 98.489 C 291.080 97.890, 286 88.822, 286 86.054 C 286 84.825, 287.335 84.472, 292.380 84.367 C 303.046 84.145, 310 81.007, 310 76.416 C 310 71.389, 304.971 69, 294.385 69 C 286.503 69, 281.754 70.593, 280.589 73.628 C 280.023 75.103, 279.506 74.919, 276.718 72.255 C 272.311 68.044, 266.663 66.475, 261.203 67.945 C 255.500 69.481, 250.200 74.896, 249.380 80.026 C 249.030 82.212, 248.458 84, 248.107 84 C 247.756 84, 246.683 81.785, 245.721 79.077 C 243.753 73.537, 239.097 69, 235.378 69 C 234.020 69, 231.875 70.034, 230.611 71.298 L 228.313 73.596 227.093 63.048 C 225.397 48.389, 222.142 31.934, 220.408 29.250 C 218.925 26.956, 215.596 26.226, 214.525 27.960 C 214.198 28.488, 214.823 33.370, 215.913 38.808 C 217.727 47.854, 220.276 71.894, 221.306 89.672 C 221.694 96.360, 221.601 96.768, 219.934 95.727 C 218.488 94.823, 217.164 95.220, 213.007 97.805 C 210.180 99.562, 206.990 101, 205.919 101 C 203.427 101, 200.009 95.469, 200.004 91.429 L 200 88.358 206.141 88.189 C 216.385 87.906, 220.477 84.022, 218.564 76.397 C 217.285 71.301, 206.681 69.277, 200.009 72.855 C 195.777 75.125, 192 81.870, 192 87.157 C 192 89.550, 191.528 91.010, 190.750 91.028 C 190.063 91.043, 187.753 92.378, 185.617 93.994 C 176.131 101.173, 168.872 99.564, 166.459 89.750 C 165.692 86.628, 165.661 86.636, 173.205 88.030 C 184.380 90.096, 192 85.993, 192 77.909 C 192 75.720, 191.256 72.795, 190.347 71.407 C 185.790 64.452, 172.758 62.896, 165.489 68.441 C 161.670 71.353, 158.061 77.787, 158.022 81.750 C 157.989 85.149, 155.584 84.448, 153.696 80.489 C 152.679 78.357, 150.643 76.321, 148.511 75.304 C 145.231 73.740, 144.770 73.739, 141.500 75.299 L 138 76.968 137.983 62.234 C 137.962 44.700, 136.474 28.920, 134.738 27.817 C 132.870 26.630, 132.190 26.810, 129.902 29.098 M 435 31.875 C 425.038 34.022, 420.693 41.336, 424.550 49.464 C 426.103 52.738, 428.356 54.632, 437.856 60.653 C 438.052 60.777, 437.434 62.915, 436.483 65.405 C 434.225 71.317, 434.783 80.998, 437.559 84.065 C 444.619 91.866, 462.193 90.714, 467.272 82.117 C 471.875 74.324, 467.402 65.873, 455.119 59.156 L 449.753 56.222 456.998 49.272 C 463.706 42.837, 464.153 42.154, 463.025 40.046 C 462.033 38.193, 461.210 37.867, 458.600 38.290 C 455.997 38.712, 455.214 38.405, 454.446 36.660 C 452.644 32.563, 442.916 30.170, 435 31.875 M 433.337 40.160 C 428.351 42.622, 430.606 48.166, 437.937 51.471 L 442.018 53.312 445.496 49.406 C 448.061 46.525, 448.911 44.713, 448.737 42.500 C 448.502 39.522, 448.452 39.498, 442 39.296 C 438.425 39.184, 434.527 39.572, 433.337 40.160 M 413.200 63.200 C 411.324 65.076, 411.738 67.240, 415.488 75.146 C 419.001 82.551, 421.140 92, 419.303 92 C 418.771 92, 416.864 90.170, 415.067 87.933 C 410.717 82.521, 404.326 78, 401.024 78 C 398.289 78, 395.835 80.147, 392.561 85.404 C 390.997 87.914, 390.627 88.084, 389.829 86.658 C 389.321 85.751, 388.251 81.587, 387.451 77.405 C 386.650 73.224, 385.745 69.397, 385.439 68.901 C 384.602 67.548, 381.397 67.817, 380.126 69.348 C 378.625 71.156, 381.459 86.582, 384.087 90.902 C 388.086 97.478, 394.840 96.649, 399.217 89.044 L 401.477 85.117 409.124 92.559 C 417.850 101.051, 421.216 102.083, 424.901 97.399 C 429.223 91.904, 428.508 84.297, 422.431 71.144 C 418.235 62.062, 416.140 60.260, 413.200 63.200 M 352.415 64.421 C 346.057 67.190, 342.970 74.461, 344.982 81.932 C 347.076 89.710, 355.180 92.403, 362.187 87.648 L 365.653 85.296 366.587 87.398 C 368.282 91.212, 379 89.141, 379 85 C 379 82.900, 376.251 81.001, 374.250 81.718 C 373.476 81.996, 373 81.267, 373 79.806 C 373 76.477, 370.285 72.999, 367.693 73.007 C 366.305 73.011, 364.611 74.320, 363.078 76.570 C 359.998 81.091, 355.453 83.621, 353.428 81.940 C 351.117 80.022, 351.607 73.389, 354.194 71.577 C 356.132 70.219, 356.578 70.213, 358.022 71.520 C 358.922 72.334, 360.106 73, 360.654 73 C 362.239 73, 366 68.540, 366 66.661 C 366 63.278, 358.051 61.968, 352.415 64.421 M 444.611 66.785 C 440.133 75.444, 442.423 81.509, 450.162 81.488 C 455.164 81.475, 460.602 79.478, 461.417 77.356 C 462.319 75.006, 459.196 71.277, 453.172 67.509 C 450.087 65.579, 447.223 64, 446.807 64 C 446.391 64, 445.403 65.253, 444.611 66.785 M 170.826 73.712 C 169.355 74.625, 167.691 76.383, 167.127 77.620 C 166.152 79.761, 166.353 79.900, 171.301 80.514 C 174.161 80.869, 178.300 81.011, 180.500 80.830 C 184 80.541, 184.539 80.164, 184.811 77.807 C 185.383 72.851, 176.437 70.231, 170.826 73.712 M 263 74.731 C 260.952 75.446, 257 79.127, 257 80.319 C 257 81.499, 270.907 80.493, 272.178 79.222 C 274.141 77.259, 266.488 73.514, 263 74.731 M 71.766 77.971 C 68.952 80.530, 68.777 80.945, 70.500 80.965 C 73.039 80.995, 79.040 79.299, 81 77.996 C 82.333 77.111, 82.333 76.891, 81 76.015 C 78.321 74.256, 75.099 74.938, 71.766 77.971 M 288.553 76.953 C 289.129 77.529, 291.478 77.575, 294.503 77.070 L 299.500 76.235 293.550 76.118 C 289.781 76.043, 287.949 76.349, 288.553 76.953 M 202.861 79.956 L 200.500 81.911 206 81.315 C 212.212 80.643, 212.454 80.544, 211.541 79.067 C 210.468 77.330, 205.404 77.849, 202.861 79.956 M 273 86.664 C 270.525 87.310, 266.137 87.875, 263.250 87.920 C 257.367 88.010, 256.834 88.925, 260.517 92.608 C 263.340 95.431, 264.902 95.275, 271.500 91.510 C 273.700 90.255, 276.226 89.064, 277.113 88.864 C 278.101 88.641, 278.489 87.916, 278.113 86.995 C 277.593 85.716, 276.821 85.666, 273 86.664 M 58 90.878 C 58 91.360, 58.640 92.286, 59.421 92.935 C 60.588 93.903, 60.746 93.745, 60.305 92.057 C 59.779 90.047, 58 89.137, 58 90.878" stroke="none" fill="#b4fc8c" fill-rule="evenodd"/></svg>